# Exported from ProBuilder
# http://www.procore3d.com/probuilder
# 2/4/2019 5:01:03 PM

mtllib ./arrow2.mtl
o arrow2

g New Game Object
v 0.01230159 1.742008E-17 -0.1161508
v -0.3782738 8.427292E-16 0.2221428
v -0.3751984 -1.606779E-15 0.5143054
v 0.01537693 -1.195053E-16 0.1852381
v 0.3998016 1.357448E-15 0.5235316
v 0.3998015 -3.725291E-09 0.2282935
v 0.01230159 -0.1122541 -0.1161508
v -0.3782738 -0.1122541 0.2221428
v 0.01537693 -0.1122541 0.1852381
v -0.3751984 -0.1122541 0.5143054
v 0.3998015 -0.1122542 0.2282935
v 0.3998016 -0.1122541 0.5235316
v 0.3998015 -3.725291E-09 0.2282935
v 0.3998016 1.357448E-15 0.5235316
v 0.3998015 -0.1122542 0.2282935
v 0.3998016 -0.1122541 0.5235316
v 0.3998016 1.357448E-15 0.5235316
v 0.01537693 -1.195053E-16 0.1852381
v 0.3998016 -0.1122541 0.5235316
v 0.01537693 -0.1122541 0.1852381
v 0.01230159 1.742008E-17 -0.1161508
v 0.3998015 -3.725291E-09 0.2282935
v 0.01230159 -0.1122541 -0.1161508
v 0.3998015 -0.1122542 0.2282935
v -0.3751984 -1.606779E-15 0.5143054
v -0.3782738 8.427292E-16 0.2221428
v -0.3751984 -0.1122541 0.5143054
v -0.3782738 -0.1122541 0.2221428
v 0.01537693 -1.195053E-16 0.1852381
v -0.3751984 -1.606779E-15 0.5143054
v 0.01537693 -0.1122541 0.1852381
v -0.3751984 -0.1122541 0.5143054
v -0.3782738 8.427292E-16 0.2221428
v 0.01230159 1.742008E-17 -0.1161508
v -0.3782738 -0.1122541 0.2221428
v 0.01230159 -0.1122541 -0.1161508

vn 4.788215E-09 1 -4.885692E-11
vn 1.424099E-15 1 7.105427E-15
vn 2.893127E-15 1 7.105427E-15
vn 5.145713E-09 1 -3.117108E-09
vn 1.110377E-08 0.9999999 -1.261793E-08
vn 1.039588E-08 0.9999999 -6.29751E-09
vn -1.016273E-08 -0.9999999 -1.315662E-08
vn -1.185457E-08 -1 -1.198468E-08
vn -1.083567E-08 -1 -6.031485E-09
vn -1.174301E-08 -1 -1.07947E-08
vn -9.796088E-09 -0.9999999 4.257383E-11
vn -1.130562E-08 -1 1.352058E-08
vn 1 1.76495E-14 -2.018867E-07
vn 1 1.76495E-14 -2.018867E-07
vn 1 1.76495E-14 -2.018867E-07
vn 1 1.76495E-14 -2.018867E-07
vn -0.6606277 -6.562947E-08 0.7507136
vn -0.6606277 -6.562947E-08 0.7507136
vn -0.6606277 -6.562947E-08 0.7507136
vn -0.6606277 -6.562947E-08 0.7507136
vn 0.6643638 3.278576E-08 -0.7474093
vn 0.6643638 6.53406E-08 -0.7474093
vn 0.6643638 2.309136E-10 -0.7474093
vn 0.6643638 3.278576E-08 -0.7474093
vn -0.9999446 -9.201963E-10 0.01052582
vn -0.9999446 -9.201963E-10 0.01052582
vn -0.9999446 -9.201963E-10 0.01052582
vn -0.9999446 -9.201963E-10 0.01052582
vn 0.6443211 -6.685702E-08 0.7647551
vn 0.6443211 -6.685702E-08 0.7647551
vn 0.6443211 -6.685702E-08 0.7647551
vn 0.6443211 -6.685702E-08 0.7647551
vn -0.6547039 6.60816E-08 -0.7558855
vn -0.6547039 6.60816E-08 -0.7558855
vn -0.6547039 6.60816E-08 -0.7558855
vn -0.6547039 6.60816E-08 -0.7558855

vt -0.01230159 0.006150842
vt 0.3782738 -0.3321428
vt 0.3751984 -0.6243054
vt -0.01537693 -0.2952381
vt -0.3998016 -0.6335316
vt -0.3998015 -0.3382935
vt 0.01230159 0.006150841
vt -0.3782738 -0.3321428
vt 0.01537693 -0.2952381
vt -0.3751984 -0.6243054
vt 0.3998015 -0.3382935
vt 0.3998016 -0.6335316
vt -0.3382936 -2.584927E-08
vt -0.6335316 -5.538509E-08
vt -0.3382936 0.1122541
vt -0.6335316 0.1122541
vt 0.718665 -5.538509E-08
vt 0.2065861 -2.581053E-08
vt 0.718665 0.1122541
vt 0.2065861 0.1122541
vt -0.00510793 -2.937225E-10
vt -0.5235653 -2.668071E-08
vt -0.005107936 0.1122541
vt -0.5235653 0.1122541
vt 0.6203215 -5.457851E-08
vt 0.3281427 -2.903684E-08
vt 0.6203215 0.1122541
vt 0.3281427 0.1122541
vt -0.1784685 -2.581053E-08
vt -0.689188 -5.457851E-08
vt -0.1784685 0.1122541
vt -0.689188 0.1122541
vt 0.5033869 -2.903684E-08
vt -0.01332558 5.377236E-10
vt 0.5033869 0.1122541
vt -0.01332557 0.1122541

g New Game Object_0
usemtl Default_Prototype
f 13/13/13 14/14/14 16/16/16 15/15/15
f 17/17/17 18/18/18 20/20/20 19/19/19
f 21/21/21 22/22/22 24/24/24 23/23/23
f 25/25/25 26/26/26 28/28/28 27/27/27
f 29/29/29 30/30/30 32/32/32 31/31/31
f 33/33/33 34/34/34 36/36/36 35/35/35

g New Game Object_1
usemtl Default_Prototype
f 1/1/1 2/2/2 4/4/4
f 4/4/4 2/2/2 3/3/3
f 1/1/1 4/4/4 6/6/6
f 5/5/5 6/6/6 4/4/4
f 9/9/9 11/11/11 12/12/12
f 11/11/11 9/9/9 7/7/7
f 10/10/10 8/8/8 9/9/9
f 9/9/9 8/8/8 7/7/7

