# Exported from ProBuilder
# http://www.procore3d.com/probuilder
# 2/12/2019 8:45:04 PM

mtllib ./GateR.mtl
o GateR

g GateR
v 15.05638 0 3.713037
v 13.13 -0.1767011 3.713037
v 15.05638 2.656037 3.713037
v 13.13 -0.1767011 3.713037
v 13.13 2.656037 3.713037
v 15.05638 2.656037 3.713037
v 14.90292 -0.01526976 3.585221
v 14.90292 -0.01526976 -1.58794
v 14.90292 2.409506 3.585221
v 14.90292 -0.01526976 -1.58794
v 14.90292 2.409506 -1.58794
v 14.90292 2.409506 3.585221
v 13.13 -0.1767011 -1.711515
v 15.05638 0 -1.711515
v 13.13 2.656037 -1.711515
v 15.05638 0 -1.711515
v 15.05638 2.656037 -1.711515
v 13.13 2.656037 -1.711515
v 15.05638 0 -1.711515
v 15.05638 0 3.713037
v 15.05638 2.656037 -1.711515
v 15.05638 0 3.713037
v 15.05638 2.656037 3.713037
v 15.05638 2.656037 -1.711515
v 15.05638 2.656037 3.713037
v 13.13 2.656037 3.713037
v 15.05638 2.656037 -1.711515
v 13.13 2.656037 3.713037
v 13.13 2.656037 -1.711515
v 15.05638 2.656037 -1.711515
v 15.05638 0 -1.711515
v 13.13 -0.1767011 -1.711515
v 15.05638 0 3.713037
v 13.13 -0.1767011 -1.711515
v 13.13 -0.1767011 3.713037
v 15.05638 0 3.713037
v 13.13 -0.1767011 3.713037
v 13.13 -0.1767011 -1.711515
v 13.1299 -0.00222075 3.585221
v 13.13 -0.1767011 -1.711515
v 13.1299 -0.00222075 -1.58794
v 13.1299 -0.00222075 3.585221
v 13.13 2.656037 3.713037
v 13.13 -0.1767011 3.713037
v 13.1299 2.599256 3.585221
v 13.13 -0.1767011 3.713037
v 13.1299 -0.00222075 3.585221
v 13.1299 2.599256 3.585221
v 13.13 -0.1767011 -1.711515
v 13.13 2.656037 -1.711515
v 13.1299 -0.00222075 -1.58794
v 13.13 2.656037 -1.711515
v 13.1299 2.599256 -1.58794
v 13.1299 -0.00222075 -1.58794
v 13.13 2.656037 -1.711515
v 13.13 2.656037 3.713037
v 13.1299 2.599256 -1.58794
v 13.13 2.656037 3.713037
v 13.1299 2.599256 3.585221
v 13.1299 2.599256 -1.58794
v 13.1299 -0.00222075 3.585221
v 13.1299 -0.00222075 -1.58794
v 14.90292 -0.01526976 3.585221
v 13.1299 -0.00222075 -1.58794
v 14.90292 -0.01526976 -1.58794
v 14.90292 -0.01526976 3.585221
v 13.1299 2.599256 3.585221
v 13.1299 -0.00222075 3.585221
v 14.90292 2.409506 3.585221
v 13.1299 -0.00222075 3.585221
v 14.90292 -0.01526976 3.585221
v 14.90292 2.409506 3.585221
v 13.1299 -0.00222075 -1.58794
v 13.1299 2.599256 -1.58794
v 14.90292 -0.01526976 -1.58794
v 13.1299 2.599256 -1.58794
v 14.90292 2.409506 -1.58794
v 14.90292 -0.01526976 -1.58794
v 13.1299 2.599256 -1.58794
v 13.1299 2.599256 3.585221
v 14.90292 2.409506 -1.58794
v 13.1299 2.599256 3.585221
v 14.90292 2.409506 3.585221
v 14.90292 2.409506 -1.58794

vn 0 0 1
vn 0 0 1
vn 0 0 1
vn 0 0 1
vn 0 0 1
vn 0 0 1
vn -1 0 0
vn -1 0 0
vn -1 0 0
vn -1 0 0
vn -1 0 0
vn -1 0 0
vn 0 0 -1
vn 0 0 -1
vn 0 0 -1
vn 0 0 -1
vn 0 0 -1
vn 0 0 -1
vn 1 0 0
vn 1 0 0
vn 1 0 0
vn 1 0 0
vn 1 0 0
vn 1 0 0
vn 0 1 0
vn 0 1 0
vn 0 1 0
vn 0 1 0
vn 0 1 0
vn 0 1 0
vn 0.09134366 -0.9958194 0
vn 0.09134366 -0.9958194 0
vn 0.09134366 -0.9958194 0
vn 0.09134366 -0.9958194 0
vn 0.09134366 -0.9958194 0
vn 0.09134366 -0.9958194 0
vn -0.9999998 -0.0005732256 0
vn -0.9999998 -0.0005732256 0
vn -0.9999998 -0.0005732256 0
vn -0.9999999 -0.0005732256 0
vn -0.9999999 -0.0005732256 0
vn -0.9999999 -0.0005732256 0
vn -0.9999998 0 0.0007825075
vn -0.9999998 0 0.0007825075
vn -0.9999998 0 0.0007825075
vn -0.9999998 0 0.0007825075
vn -0.9999998 0 0.0007825075
vn -0.9999998 0 0.0007825075
vn -0.9999997 0 -0.0008093609
vn -0.9999997 0 -0.0008093609
vn -0.9999997 0 -0.0008093609
vn -0.9999997 0 -0.0008093609
vn -0.9999997 0 -0.0008093609
vn -0.9999997 0 -0.0008093609
vn -0.9999985 0.001761433 0
vn -0.9999985 0.001761433 0
vn -0.9999985 0.001761433 0
vn -0.9999985 0.001761433 0
vn -0.9999985 0.001761433 0
vn -0.9999985 0.001761433 0
vn 0.007359583 0.9999729 0
vn 0.007359583 0.9999729 0
vn 0.007359583 0.9999729 0
vn 0.007359583 0.9999729 0
vn 0.007359583 0.9999729 0
vn 0.007359583 0.9999729 0
vn 0 0 -0.9999999
vn 0 0 -0.9999999
vn 0 0 -0.9999999
vn 0 0 -1
vn 0 0 -1
vn 0 0 -1
vn 0 0 0.9999999
vn 0 0 0.9999999
vn 0 0 0.9999999
vn 0 0 1
vn 0 0 1
vn 0 0 1
vn -0.1064135 -0.994322 0
vn -0.1064135 -0.994322 0
vn -0.1064135 -0.994322 0
vn -0.1064135 -0.994322 0
vn -0.1064135 -0.994322 0
vn -0.1064135 -0.994322 0

vt 0.9263773 0
vt -1 -0.1767011
vt 0.9263773 2.656037
vt -1 -0.1767011
vt -1 2.656037
vt 0.9263773 2.656037
vt 2.285221 -0.01526976
vt -2.88794 -0.01526976
vt 2.285221 2.409506
vt -2.88794 -0.01526976
vt -2.88794 2.409506
vt 2.285221 2.409506
vt 1 -0.1767011
vt -0.9263773 0
vt 1 2.656037
vt -0.9263773 0
vt -0.9263773 2.656037
vt 1 2.656037
vt 3.011515 0
vt -2.413037 0
vt 3.011515 2.656037
vt -2.413037 0
vt -2.413037 2.656037
vt 3.011515 2.656037
vt -0.9263773 2.413037
vt 1 2.413037
vt -0.9263773 -3.011515
vt 1 2.413037
vt 1 -3.011515
vt -0.9263773 -3.011515
vt 0.9225045 -3.011515
vt -1.01196 -3.011515
vt 0.9225045 2.413037
vt -1.01196 -3.011515
vt -1.01196 2.413037
vt 0.9225045 2.413037
vt 2.413037 -0.1761278
vt -3.011515 -0.1761278
vt 2.285221 -0.001647467
vt -3.011515 -0.1761278
vt -2.88794 -0.001647467
vt 2.285221 -0.001647467
vt 2.412254 2.656037
vt 2.412254 -0.1767011
vt 2.284438 2.599256
vt 2.412254 -0.1767011
vt 2.284438 -0.00222075
vt 2.284438 2.599256
vt -3.010705 -0.1767011
vt -3.010705 2.656037
vt -2.88713 -0.00222075
vt -3.010705 2.656037
vt -2.88713 2.599256
vt -2.88713 -0.00222075
vt -3.011515 2.654272
vt 2.413037 2.654272
vt -2.88794 2.59749
vt 2.413037 2.654272
vt 2.285221 2.59749
vt -2.88794 2.59749
vt 1.000057 2.285221
vt 1.000057 -2.88794
vt -0.7730066 2.285221
vt 1.000057 -2.88794
vt -0.7730066 -2.88794
vt -0.7730066 2.285221
vt 1.0001 2.599256
vt 1.0001 -0.00222075
vt -0.7729151 2.409506
vt 1.0001 -0.00222075
vt -0.7729151 -0.01526976
vt -0.7729151 2.409506
vt -1.0001 -0.00222075
vt -1.0001 2.599256
vt 0.7729151 -0.01526976
vt -1.0001 2.599256
vt 0.7729151 2.409506
vt 0.7729151 -0.01526976
vt -1.271017 -2.88794
vt -1.271017 2.285221
vt 0.5121225 -2.88794
vt -1.271017 2.285221
vt 0.5121225 2.285221
vt 0.5121225 -2.88794

g GateR
usemtl Gate
f 3/3/3 2/2/2 1/1/1
f 6/6/6 5/5/5 4/4/4
f 9/9/9 8/8/8 7/7/7
f 12/12/12 11/11/11 10/10/10
f 15/15/15 14/14/14 13/13/13
f 18/18/18 17/17/17 16/16/16
f 21/21/21 20/20/20 19/19/19
f 24/24/24 23/23/23 22/22/22
f 27/27/27 26/26/26 25/25/25
f 30/30/30 29/29/29 28/28/28
f 33/33/33 32/32/32 31/31/31
f 36/36/36 35/35/35 34/34/34
f 39/39/39 38/38/38 37/37/37
f 42/42/42 41/41/41 40/40/40
f 45/45/45 44/44/44 43/43/43
f 48/48/48 47/47/47 46/46/46
f 51/51/51 50/50/50 49/49/49
f 54/54/54 53/53/53 52/52/52
f 57/57/57 56/56/56 55/55/55
f 60/60/60 59/59/59 58/58/58
f 63/63/63 62/62/62 61/61/61
f 66/66/66 65/65/65 64/64/64
f 69/69/69 68/68/68 67/67/67
f 72/72/72 71/71/71 70/70/70
f 75/75/75 74/74/74 73/73/73
f 78/78/78 77/77/77 76/76/76
f 81/81/81 80/80/80 79/79/79
f 84/84/84 83/83/83 82/82/82

